<?xml version="1.0" encoding="UTF-8" standalone="no"?>
<!-- Created with Inkscape (http://www.inkscape.org/) -->

<svg
   xmlns:dc="http://purl.org/dc/elements/1.1/"
   xmlns:cc="http://creativecommons.org/ns#"
   xmlns:rdf="http://www.w3.org/1999/02/22-rdf-syntax-ns#"
   xmlns:svg="http://www.w3.org/2000/svg"
   xmlns="http://www.w3.org/2000/svg"
   xmlns:xlink="http://www.w3.org/1999/xlink"
   version="1.1"
   width="3200"
   height="960"
   id="svg2985">
  <metadata
     id="metadata2991">
    <rdf:RDF>
      <cc:Work
         rdf:about="">
        <dc:format>image/svg+xml</dc:format>
        <dc:type
           rdf:resource="http://purl.org/dc/dcmitype/StillImage" />
        <dc:title></dc:title>
      </cc:Work>
    </rdf:RDF>
  </metadata>
  <defs
     id="defs2989" />
  <image
     xlink:href="file:///C:/Users/Ren%C3%A9/Documents/hogeschool/AMP2/Labo/projecten/Lab08_Game_Assignment/AMP2Game%20Assignment/TheRussiansInvadedTheMoon/resources/BackgroundhitregionFuelbases.bmp"
     x="0"
     y="0"
     width="3200"
     height="960"
     id="image2993" />
  <path
     d="m 230,883 c 0.52282,-5.71337 2.1401,-11.52529 3.16031,-16 l 0.80321,0 c 1.30224,-1.00063 1.39316,-2.25594 1.80851,-3.84423 -1.92401,-1.84332 -3.84802,-3.68663 -5.77203,-5.52995 0,-1.05584 0,-2.11168 0,-3.16752 5.92684,-5.89937 11.85368,-11.79875 17.78051,-17.69813 l 1.06105,0.36992 c 7.4993,6.39412 12.71549,11.83097 20.15844,19.15042 0,0.9065 0,1.81299 0,2.71949 26.33333,0 52.66667,0 79,0 0,-1.5139 0,-3.0278 0,-4.5417 5.92684,-5.89937 11.85368,-11.79875 17.78051,-17.69813 l 1.05117,0.36992 c 7.21387,6.10873 12.22523,11.3186 19.37287,18.32208 -1.42677,1.92734 -2.41832,3.46447 -3.3988,5.49643 0.99832,0.99833 1.99664,1.99665 2.99496,2.99497 0.85914,3.35214 1.71826,6.70429 2.57739,10.05643 0.54063,0 1.08127,0 1.6219,0 0,3 0,6 0,9 -53.33333,0 -106.66667,0 -160,0 z m 2579,-7 c 0.5229,-5.71337 2.1401,-11.52528 3.1603,-16 1.941,0.12129 2.3208,-2.7122 2.6117,-3.84423 -1.924,-1.84332 -3.848,-3.68664 -5.772,-5.52995 0,-1.05584 0,-2.11168 0,-3.16752 5.9269,-5.89934 11.8537,-11.79873 17.7805,-17.69813 l 1.0611,0.36992 c 7.4992,6.39417 12.7155,11.83098 20.1584,19.15042 0,0.9065 0,1.81299 0,2.71949 26.3333,0 52.6667,0 79,0 0,-1.5139 0,-3.0278 0,-4.5417 5.9269,-5.89934 11.8537,-11.79873 17.7805,-17.69813 7.9976,5.364 14.9421,13.31326 20.424,18.692 -1.3447,1.70846 -2.4584,3.54774 -3.3988,5.49643 0.9983,0.99833 1.9967,1.99665 2.995,2.99497 0.8591,3.35214 1.7183,6.70429 2.5774,10.05643 0.5406,0 1.0813,0 1.6219,0 0,3 0,6 0,9 -53.3333,0 -106.6667,0 -160,0 z M 885,853 c 0.52282,-5.71337 2.1401,-11.52529 3.16031,-16 2.0237,-0.28207 2.18061,-2.1957 2.61172,-3.84423 -1.92401,-1.84332 -3.84802,-3.68663 -5.77203,-5.52995 0,-1.05584 0,-2.11168 0,-3.16752 5.92684,-5.89937 11.85368,-11.79875 17.78051,-17.69813 8.30447,5.62623 15.51972,13.90764 21.21949,19.52034 0,0.9065 0,1.81299 0,2.71949 26.33333,0 52.66667,0 79,0 l 0,-2.27085 0,-2.27085 c 5.9269,-5.89934 11.8537,-11.79873 17.7805,-17.69813 7.9976,5.364 14.9421,13.31326 20.424,18.692 -1.4267,1.92736 -2.4183,3.4645 -3.3988,5.49643 0.9983,0.99833 1.9967,1.99665 2.995,2.99497 0.8591,3.35214 1.7183,6.70429 2.5774,10.05643 0.5406,0 1.0813,0 1.6219,0 0,3 0,6 0,9 -53.33333,0 -106.66667,0 -160,0 z m 1280,0 c 0.5229,-5.71337 2.1401,-11.52528 3.1603,-16 1.941,0.12129 2.3208,-2.7122 2.6117,-3.84423 -1.924,-1.84332 -3.848,-3.68664 -5.772,-5.52995 0,-1.05584 0,-2.11168 0,-3.16752 3.3274,-2.67108 16.4579,-18.15922 18.8416,-17.32821 7.4992,6.39417 12.7155,11.83098 20.1584,19.15042 0,0.9065 0,1.81299 0,2.71949 26.3333,0 52.6667,0 79,0 l 0,-2.27085 0,-2.27085 c 5.9269,-5.89934 11.8537,-11.79873 17.7805,-17.69813 7.9976,5.36399 14.9421,13.31327 20.424,18.692 -1.4267,1.92736 -2.4183,3.4645 -3.3988,5.49643 0.9983,0.99833 1.9967,1.99665 2.995,2.99497 0.8591,3.35214 1.7183,6.70429 2.5774,10.05643 l 0.8109,0 0.811,0 c 0,3 0,6 0,9 -53.3333,0 -106.6667,0 -160,0 z m -628,-15 c 0.5229,-5.71337 2.1401,-11.52528 3.1603,-16 1.941,0.12129 2.3208,-2.7122 2.6117,-3.84423 -1.924,-1.84332 -3.848,-3.68664 -5.772,-5.52995 0,-1.05584 0,-2.11168 0,-3.16752 5.9269,-5.89934 11.8537,-11.79873 17.7805,-17.69813 l 1.0611,0.36992 c 7.4992,6.39417 12.7155,11.83098 20.1584,19.15042 0,0.9065 0,1.81299 0,2.71949 26.3333,0 52.6667,0 79,0 0,-1.5139 0,-3.0278 0,-4.5417 5.9269,-5.89934 11.8537,-11.79873 17.7805,-17.69813 l 1.0512,0.36992 c 7.2138,6.10875 12.2252,11.31859 19.3728,18.32208 -1.4267,1.92736 -2.4183,3.4645 -3.3988,5.49643 2.9174,2.21877 3.3781,4.4896 4.2837,8.02319 L 1695.3781,829 c 0.5406,0 1.0813,0 1.6219,0 0,3 0,6 0,9 -53.3333,0 -106.6667,0 -160,0 z"
     id="path2995"
     style="fill:#000000" />
</svg>
