<?xml version="1.0" encoding="UTF-8" standalone="no"?>
<!-- Created with Inkscape (http://www.inkscape.org/) -->

<svg
   xmlns:dc="http://purl.org/dc/elements/1.1/"
   xmlns:cc="http://creativecommons.org/ns#"
   xmlns:rdf="http://www.w3.org/1999/02/22-rdf-syntax-ns#"
   xmlns:svg="http://www.w3.org/2000/svg"
   xmlns="http://www.w3.org/2000/svg"
   xmlns:xlink="http://www.w3.org/1999/xlink"
   xmlns:sodipodi="http://sodipodi.sourceforge.net/DTD/sodipodi-0.dtd"
   xmlns:inkscape="http://www.inkscape.org/namespaces/inkscape"
   id="svg2985"
   version="1.1"
   inkscape:version="0.48.4 r9939"
   width="3200"
   height="960"
   sodipodi:docname="Backgroundhitregion.bmp">
  <metadata
     id="metadata2991">
    <rdf:RDF>
      <cc:Work
         rdf:about="">
        <dc:format>image/svg+xml</dc:format>
        <dc:type
           rdf:resource="http://purl.org/dc/dcmitype/StillImage" />
        <dc:title></dc:title>
      </cc:Work>
    </rdf:RDF>
  </metadata>
  <defs
     id="defs2989" />
  <sodipodi:namedview
     pagecolor="#ffffff"
     bordercolor="#666666"
     borderopacity="1"
     objecttolerance="10"
     gridtolerance="10"
     guidetolerance="10"
     inkscape:pageopacity="0"
     inkscape:pageshadow="2"
     inkscape:window-width="1920"
     inkscape:window-height="1028"
     id="namedview2987"
     showgrid="false"
     inkscape:zoom="0.23903539"
     inkscape:cx="-50.199495"
     inkscape:cy="60.928015"
     inkscape:window-x="-8"
     inkscape:window-y="-8"
     inkscape:window-maximized="1"
     inkscape:current-layer="svg2985" />
  <image
     width="3200"
     height="960"
     xlink:href="file:///C:/Users/Ren%C3%A9/Documents/hogeschool/AMP2/Labo/projecten/Lab08_Game_Assignment/AMP2Game%20Assignment/TheRussiansInvadedTheMoon/resources/Backgroundhitregion.bmp"
     id="image2993"
     x="0"
     y="0" />
  <path
     style="fill:#000000"
     d="m 0,960 c 0,-16.9372 0,-34.6901 0,-50.75688 l 7.5408481,-1.12156 C 11.688315,907.5047 16.300815,907.00893 17.790848,907.01985 35.761215,905.39273 53.668061,902.98854 72,901.0992 c 25.415715,-2.60934 52.1437,-4.91353 76.5,-7.04283 70.90819,-6.11977 141.87578,-10.9506 208,-15.02611 89.98259,-3.25147 178.90089,-12.5174 261.5,-13.06685 93.73725,-3.79672 191.66554,-7.20892 279,-9.45658 146.5167,-3.94654 298.5252,-6.19468 430.5,-8.00683 l 274,0 274,0 c 149.1265,1.7575 290.0652,4.51062 430.5,8.00683 98.3605,-0.0667 188.4973,8.95026 279,9.45658 109.6817,4.41425 225.5998,10.41699 323.5,17.07817 64.0053,4.07818 126.8207,9.27026 186,14.54117 24.2984,2.24536 47.6413,4.54113 72,7.40948 10.1225,3.03873 22.0924,0.25906 32.1023,3.68539 C 3202.0443,911.94976 3200,953.4509 3200,960 2133.3333,960 1066.6667,960 0,960 z"
     id="path2995"
     inkscape:connector-curvature="0"
     sodipodi:nodetypes="ccsccccccccccccccccc" />
</svg>
